<svg xmlns="http://www.w3.org/2000/svg" width="25.581" height="19.398" viewBox="0 0 25.581 19.398">
  <g id="np_chat_742164_000000" transform="translate(-2.386 -13.894)">
    <path id="Tracciato_99" data-name="Tracciato 99" d="M54.615,44.582a7.2,7.2,0,0,1-.383,1,3.578,3.578,0,0,1,1.028,6.972l-.115.04L53.474,54.27l-1.53-1.529H49.028A3.583,3.583,0,0,1,45.5,49.76H44.469a4.612,4.612,0,0,0,4.56,4.015h2.488l1.961,1.96,2.231-2.245a4.6,4.6,0,0,0-1.093-8.909Z" transform="translate(-30.778 -22.443)" fill="#2e345a"/>
    <path id="Tracciato_100" data-name="Tracciato 100" d="M23.1,20.086a6.2,6.2,0,0,0-6.192-6.192H8.578A6.192,6.192,0,0,0,6.612,25.957L6.727,26l2.91,2.924,2.637-2.638h4.635A6.2,6.2,0,0,0,23.1,20.086ZM7.566,21.513a1.489,1.489,0,1,1,1.489-1.489A1.488,1.488,0,0,1,7.566,21.513Zm5.179,0a1.489,1.489,0,1,1,1.489-1.489A1.488,1.488,0,0,1,12.744,21.513Zm3.69-1.488a1.489,1.489,0,1,1,1.489,1.489A1.489,1.489,0,0,1,16.434,20.025Z" fill="#2e345a"/>
  </g>
</svg>
