<svg xmlns="http://www.w3.org/2000/svg" width="15.882" height="19.355" viewBox="0 0 15.882 19.355">
  <path id="np_document_942655_000000" d="M10.563,0A1.585,1.585,0,0,0,8.972,1.585v13.9a1.591,1.591,0,0,0,1.591,1.591h.045V3.859A2.227,2.227,0,0,1,12.84,1.636h9.737V1.585A1.586,1.586,0,0,0,20.986,0ZM12.84,2.277A1.59,1.59,0,0,0,11.25,3.868v13.9a1.591,1.591,0,0,0,1.591,1.591h6.515V14.337a.326.326,0,0,1,.321-.321h5.178V3.868h0a1.592,1.592,0,0,0-1.591-1.591Zm1.291,4h7.841a.349.349,0,0,1,.348.348.354.354,0,0,1-.348.348H14.132a.354.354,0,0,1-.351-.348A.35.35,0,0,1,14.132,6.282Zm0,1.911h7.841a.349.349,0,0,1,.348.348.355.355,0,0,1-.348.348H14.132a.355.355,0,0,1-.351-.348A.35.35,0,0,1,14.132,8.194Zm0,1.923h7.841a.349.349,0,0,1,.348.348.356.356,0,0,1-.348.351H14.132a.357.357,0,0,1-.351-.351A.35.35,0,0,1,14.132,10.117Zm5.862,4.54v4.689a5.141,5.141,0,0,0,4.84-4.689Z" transform="translate(-8.972)" fill="#2e345a"/>
</svg>
