<svg xmlns="http://www.w3.org/2000/svg" width="19.664" height="19.648" viewBox="0 0 19.664 19.648">
  <g id="np_home_4247781_000000" transform="translate(-9.377 -9.375)">
    <path id="Tracciato_97" data-name="Tracciato 97" d="M26.674,19.739a.846.846,0,0,0-.174-.113h-.076a.9.9,0,0,0-.181.113c-2.275,1.942-4.882,3.907-7.073,5.864a.753.753,0,0,0-.264.567v9.824a.854.854,0,0,0,.9.8h4.443a.817.817,0,0,1-.166-.491V30.257a.937.937,0,0,1,.982-.877h2.811a.937.937,0,0,1,.982.877V36.3a.823.823,0,0,1-.166.491h4.451a.862.862,0,0,0,.9-.8V26.169a.755.755,0,0,0-.227-.529c-.28-.272-5.123-4.239-7.141-5.9Z" transform="translate(-7.225 -7.771)" fill="#fc5a5f"/>
    <path id="Tracciato_98" data-name="Tracciato 98" d="M28.789,17.166,19.721,9.549a.758.758,0,0,0-.453-.174H19.2a.8.8,0,0,0-.484.174l-9.106,7.7a.611.611,0,0,0-.038.929.8.8,0,0,0,1.043,0l8.63-7.239,8.539,7.194a.809.809,0,0,0,1.043,0,.62.62,0,0,0-.038-.967Z" fill="#fc5a5f"/>
  </g>
</svg>
