<svg xmlns="http://www.w3.org/2000/svg" width="18.995" height="18.988" viewBox="0 0 18.995 18.988">
  <path id="np_settings_2650511_000000" d="M18.738,5.489a2,2,0,0,0-1.817-1.156,2.773,2.773,0,0,1-1.88-.57A2.742,2.742,0,0,1,14.414,1.9,2,2,0,0,0,13.2.118a2,2,0,0,0-2.1.464,2.832,2.832,0,0,1-1.734.934A2.735,2.735,0,0,1,7.6.644,2,2,0,0,0,5.489.24a2,2,0,0,0-1.16,1.817,2.773,2.773,0,0,1-.57,1.88A2.757,2.757,0,0,1,1.9,4.564,2.01,2.01,0,0,0,.118,5.781a2,2,0,0,0,.463,2.1,2.83,2.83,0,0,1,.935,1.731,2.729,2.729,0,0,1-.872,1.759,1.993,1.993,0,0,0-.4,2.117,2,2,0,0,0,1.817,1.16,2.773,2.773,0,0,1,1.88.57,2.732,2.732,0,0,1,.627,1.861,2,2,0,0,0,1.217,1.78,2,2,0,0,0,2.1-.464,2.78,2.78,0,0,1,1.732-.927,2.794,2.794,0,0,1,1.763.875,1.925,1.925,0,0,0,3.277-1.417,2.773,2.773,0,0,1,.57-1.88,2.727,2.727,0,0,1,1.863-.621A1.927,1.927,0,0,0,18.4,11.106a2.808,2.808,0,0,1-.936-1.734,2.719,2.719,0,0,1,.875-1.759,2.031,2.031,0,0,0,.4-2.125Zm-7.786,7.4h0a1.987,1.987,0,1,1,.005,0Z" transform="translate(0.005 0.004)" fill="#2e345a"/>
</svg>
